# xmcd
#
# Track frame offsets: 
#        150
#        24600
#        44850
#        69900
#        91500
#        112950
#        138450
#        158175
#        180375
#        200700
#
# Disc length: 3024 seconds
#
# Revision: 0
# Processed by: cddbd v1.5.2PL0 Copyright (c) Steve Scherf et al.
# Submitted via: ExactAudioCopy v1.0b3
#
DISCID=830bce0a
DTITLE=Son Tuyen - Can Nha Ngoai O
DYEAR=1994
DGENRE=
TTITLE0=Can nha ngoai o
TTITLE1=Go cua
TTITLE2=Sao chua thay hoi am
TTITLE3=Lau dai tinh ai
TTITLE4=Em di chua Huong
TTITLE5=Ngoai o buon
TTITLE6=Doi thay
TTITLE7=O hai dau noi nho
TTITLE8=Hoa bien
TTITLE9=Da ta
EXTD=
EXTT0=
EXTT1=
EXTT2=
EXTT3=
EXTT4=
EXTT5=
EXTT6=
EXTT7=
EXTT8=
EXTT9=
PLAYORDER=
